<?xml version="1.0" encoding="utf-8"?>
<!-- Generator: Adobe Illustrator 16.0.0, SVG Export Plug-In . SVG Version: 6.00 Build 0)  -->
<!DOCTYPE svg PUBLIC "-//W3C//DTD SVG 1.1//EN" "http://www.w3.org/Graphics/SVG/1.1/DTD/svg11.dtd">
<svg version="1.1" id="Capa_1" xmlns="http://www.w3.org/2000/svg" xmlns:xlink="http://www.w3.org/1999/xlink" x="0px" y="0px"
	 width="436.373px" height="143.321px" viewBox="0 0 436.373 143.321" enable-background="new 0 0 436.373 143.321"
	 xml:space="preserve">
<g opacity="0.4">
	<g>
		<defs>
			<rect id="SVGID_1_" x="10.499" y="132.563" width="76.49" height="10.757"/>
		</defs>
		<clipPath id="SVGID_2_">
			<use xlink:href="#SVGID_1_"  overflow="visible"/>
		</clipPath>
		<path clip-path="url(#SVGID_2_)" fill="#282829" d="M86.989,137.942c0,2.971-17.123,5.379-38.245,5.379
			s-38.245-2.408-38.245-5.379s17.123-5.378,38.245-5.378S86.989,134.971,86.989,137.942"/>
	</g>
</g>
<g>
	<defs>
		<path id="SVGID_3_" d="M0,49.738c0,34.352,44.882,86.358,44.882,86.358c2.124,2.461,5.599,2.461,7.724,0
			c0,0,44.882-52.006,44.882-86.358C97.488,22.269,76.213,0,48.744,0C21.274,0,0,22.269,0,49.738"/>
	</defs>
	<clipPath id="SVGID_4_">
		<use xlink:href="#SVGID_3_"  overflow="visible"/>
	</clipPath>
	
		<linearGradient id="SVGID_5_" gradientUnits="userSpaceOnUse" x1="-80.8853" y1="613.7817" x2="-80.3233" y2="613.7817" gradientTransform="matrix(0 -245.587 -245.587 0 150785.4844 -19726.3867)">
		<stop  offset="0" style="stop-color:#231F20"/>
		<stop  offset="0.167" style="stop-color:#282425"/>
		<stop  offset="0.4393" style="stop-color:#343233"/>
		<stop  offset="0.7811" style="stop-color:#49484A"/>
		<stop  offset="1" style="stop-color:#595A5C"/>
	</linearGradient>
	<rect clip-path="url(#SVGID_4_)" fill="url(#SVGID_5_)" width="97.488" height="138.557"/>
</g>
<g>
	<defs>
		<path id="SVGID_6_" d="M3.05,50.42c0,32.203,41.898,80.75,41.898,80.75c2.087,2.419,5.503,2.419,7.591,0
			c0,0,41.897-48.548,41.897-80.75c0-25.75-19.943-46.625-45.693-46.625C22.994,3.795,3.05,24.67,3.05,50.42"/>
	</defs>
	<clipPath id="SVGID_7_">
		<use xlink:href="#SVGID_6_"  overflow="visible"/>
	</clipPath>
	
		<linearGradient id="SVGID_8_" gradientUnits="userSpaceOnUse" x1="-80.8999" y1="613.8267" x2="-80.3382" y2="613.8267" gradientTransform="matrix(0 -230.0055 -230.0055 0 141232.4375 -18474.4531)">
		<stop  offset="0" style="stop-color:#1E1E1C"/>
		<stop  offset="0.15" style="stop-color:#1E1E1C"/>
		<stop  offset="1" style="stop-color:#414142"/>
	</linearGradient>
	<rect x="3.05" y="3.795" clip-path="url(#SVGID_7_)" fill="url(#SVGID_8_)" width="91.387" height="129.795"/>
</g>
<g opacity="0.4">
	<g>
		<defs>
			<rect id="SVGID_9_" x="22.521" y="3.795" width="71.916" height="95.161"/>
		</defs>
		<clipPath id="SVGID_10_">
			<use xlink:href="#SVGID_9_"  overflow="visible"/>
		</clipPath>
		<g clip-path="url(#SVGID_10_)">
			<defs>
				<path id="SVGID_11_" d="M22.521,12.084l53.45,86.872c9.585-15.422,18.466-33.71,18.466-48.536
					c0-25.75-19.943-46.625-45.693-46.625C36.538,3.795,31.891,5.801,22.521,12.084"/>
			</defs>
			<clipPath id="SVGID_12_">
				<use xlink:href="#SVGID_11_"  overflow="visible"/>
			</clipPath>
			<defs>
				<filter id="Adobe_OpacityMaskFilter" filterUnits="userSpaceOnUse" x="22.521" y="3.795" width="71.916" height="95.161">
					<feColorMatrix  type="matrix" values="1 0 0 0 0  0 1 0 0 0  0 0 1 0 0  0 0 0 1 0"/>
				</filter>
			</defs>
			<mask maskUnits="userSpaceOnUse" x="22.521" y="3.795" width="71.916" height="95.161" id="SVGID_13_">
				<g filter="url(#Adobe_OpacityMaskFilter)">
					
						<linearGradient id="SVGID_14_" gradientUnits="userSpaceOnUse" x1="-81.0518" y1="614.1294" x2="-80.4902" y2="614.1294" gradientTransform="matrix(0 -169.4224 -169.4224 0 104105.5859 -13633.0586)">
						<stop  offset="0" style="stop-color:#000000"/>
						<stop  offset="0.15" style="stop-color:#000000"/>
						<stop  offset="1" style="stop-color:#FFFFFF"/>
					</linearGradient>
					<rect x="22.521" y="3.795" clip-path="url(#SVGID_12_)" fill="url(#SVGID_14_)" width="71.916" height="95.161"/>
				</g>
			</mask>
			
				<linearGradient id="SVGID_15_" gradientUnits="userSpaceOnUse" x1="-81.0522" y1="614.1294" x2="-80.4907" y2="614.1294" gradientTransform="matrix(0 -169.4223 -169.4223 0 104105.5938 -13633.0625)">
				<stop  offset="0" style="stop-color:#1E1E1C"/>
				<stop  offset="0.15" style="stop-color:#1E1E1C"/>
				<stop  offset="1" style="stop-color:#FFFFFF"/>
			</linearGradient>
			
				<rect x="22.521" y="3.795" clip-path="url(#SVGID_12_)" mask="url(#SVGID_13_)" fill="url(#SVGID_15_)" width="71.916" height="95.161"/>
		</g>
	</g>
</g>
<path fill="#F29107" d="M42.122,46.917H29.355c-3.364,0-6.124-2.761-6.124-6.125c0-3.365,2.76-6.125,6.124-6.125h38.818
	c3.365,0,6.125,2.76,6.125,6.125c0,3.364-2.76,6.125-6.125,6.125H55.407v42.009c0,3.709-2.934,6.643-6.642,6.643
	c-3.709,0-6.643-2.933-6.643-6.643V46.917z"/>
<g>
	<path fill="#F29107" d="M133.029,57.873h-11.008V53.9h26.794v3.973h-11.061v32.218h-4.725V57.873z"/>
	<path fill="#F29107" d="M148.544,77.956c0.107,6.39,4.188,9.021,8.914,9.021c3.383,0,5.423-0.591,7.195-1.343l0.805,3.383
		c-1.665,0.752-4.51,1.611-8.645,1.611c-8,0-12.779-5.263-12.779-13.102c0-7.84,4.618-14.015,12.189-14.015
		c8.484,0,10.739,7.464,10.739,12.242c0,0.967-0.107,1.719-0.161,2.202H148.544z M162.398,74.573
		c0.054-3.008-1.235-7.679-6.551-7.679c-4.779,0-6.873,4.402-7.249,7.679H162.398z"/>
	<path fill="#F29107" d="M172.812,51.967h4.725v38.124h-4.725V51.967z"/>
	<path fill="#F29107" d="M209.001,76.882c0,9.611-6.658,13.8-12.94,13.8c-7.034,0-12.458-5.155-12.458-13.37
		c0-8.699,5.692-13.8,12.887-13.8C203.954,63.512,209.001,68.935,209.001,76.882z M188.382,77.15c0,5.691,3.275,9.987,7.893,9.987
		c4.511,0,7.894-4.242,7.894-10.095c0-4.403-2.202-9.987-7.786-9.987C190.798,67.056,188.382,72.21,188.382,77.15z"/>
	<path fill="#F29107" d="M215.119,54.329c2.255-0.375,5.208-0.697,8.967-0.697c4.618,0,8.001,1.073,10.148,3.007
		c1.987,1.718,3.169,4.349,3.169,7.571c0,3.275-0.967,5.853-2.793,7.731c-2.47,2.632-6.497,3.974-11.061,3.974
		c-1.396,0-2.686-0.054-3.76-0.322v14.498h-4.671V54.329z M219.79,71.78c1.021,0.269,2.31,0.376,3.867,0.376
		c5.637,0,9.074-2.738,9.074-7.732c0-4.778-3.383-7.087-8.538-7.087c-2.04,0-3.598,0.16-4.403,0.375V71.78z"/>
	<path fill="#F29107" d="M243.521,72.21c0-3.061-0.054-5.691-0.215-8.107h4.134l0.162,5.101h0.215
		c1.182-3.49,4.027-5.691,7.195-5.691c0.537,0,0.912,0.054,1.342,0.161v4.456c-0.482-0.107-0.967-0.161-1.611-0.161
		c-3.328,0-5.691,2.524-6.336,6.068c-0.107,0.644-0.215,1.396-0.215,2.201v13.854h-4.671V72.21z"/>
	<path fill="#F29107" d="M283.469,76.882c0,9.611-6.658,13.8-12.94,13.8c-7.034,0-12.457-5.155-12.457-13.37
		c0-8.699,5.691-13.8,12.887-13.8C278.421,63.512,283.469,68.935,283.469,76.882z M262.85,77.15c0,5.691,3.275,9.987,7.894,9.987
		c4.51,0,7.893-4.242,7.893-10.095c0-4.403-2.201-9.987-7.785-9.987S262.85,72.21,262.85,77.15z"/>
	<path fill="#F29107" d="M289.427,72.586c0-3.329-0.107-6.014-0.215-8.483h4.241l0.215,4.456h0.107
		c1.933-3.168,4.993-5.047,9.235-5.047c6.283,0,11.008,5.315,11.008,13.209c0,9.343-5.691,13.961-11.813,13.961
		c-3.438,0-6.443-1.504-8.001-4.081h-0.107v14.122h-4.671V72.586z M294.098,79.513c0,0.698,0.107,1.343,0.215,1.934
		c0.858,3.275,3.705,5.53,7.088,5.53c4.993,0,7.894-4.081,7.894-10.041c0-5.209-2.738-9.665-7.732-9.665
		c-3.222,0-6.229,2.309-7.142,5.853c-0.161,0.591-0.322,1.289-0.322,1.933V79.513z"/>
	<path fill="#F29107" d="M343.494,76.882c0,9.611-6.658,13.8-12.94,13.8c-7.034,0-12.458-5.155-12.458-13.37
		c0-8.699,5.692-13.8,12.888-13.8C338.446,63.512,343.494,68.935,343.494,76.882z M322.875,77.15c0,5.691,3.275,9.987,7.894,9.987
		c4.51,0,7.893-4.242,7.893-10.095c0-4.403-2.201-9.987-7.785-9.987C325.291,67.056,322.875,72.21,322.875,77.15z"/>
	<path fill="#F29107" d="M349.451,71.137c0-2.686-0.054-4.887-0.215-7.034h4.188l0.269,4.295h0.107
		c1.288-2.47,4.295-4.886,8.591-4.886c3.598,0,9.182,2.147,9.182,11.062v15.518h-4.725V75.109c0-4.188-1.558-7.678-6.014-7.678
		c-3.115,0-5.531,2.201-6.337,4.832c-0.215,0.591-0.322,1.396-0.322,2.202v15.625h-4.725V71.137z"/>
	<path fill="#F29107" d="M401.64,64.103c-0.107,1.879-0.215,3.973-0.215,7.141v15.089c0,5.96-1.181,9.611-3.705,11.867
		c-2.523,2.362-6.175,3.114-9.45,3.114c-3.114,0-6.551-0.752-8.645-2.148l1.181-3.598c1.719,1.074,4.403,2.041,7.625,2.041
		c4.833,0,8.377-2.523,8.377-9.075v-2.899H396.7c-1.45,2.417-4.242,4.35-8.27,4.35c-6.443,0-11.062-5.477-11.062-12.672
		c0-8.807,5.746-13.8,11.706-13.8c4.511,0,6.98,2.362,8.108,4.51h0.107l0.215-3.919H401.64z M396.754,74.358
		c0-0.806-0.054-1.504-0.269-2.148c-0.859-2.738-3.168-4.993-6.604-4.993c-4.511,0-7.732,3.813-7.732,9.826
		c0,5.101,2.577,9.343,7.679,9.343c2.899,0,5.53-1.825,6.551-4.833c0.269-0.805,0.376-1.718,0.376-2.523V74.358z"/>
	<path fill="#F29107" d="M432.779,76.882c0,9.611-6.658,13.8-12.94,13.8c-7.034,0-12.458-5.155-12.458-13.37
		c0-8.699,5.692-13.8,12.888-13.8C427.731,63.512,432.779,68.935,432.779,76.882z M412.16,77.15c0,5.691,3.275,9.987,7.894,9.987
		c4.51,0,7.893-4.242,7.893-10.095c0-4.403-2.201-9.987-7.785-9.987C414.576,67.056,412.16,72.21,412.16,77.15z"/>
</g>
<g>
</g>
<g>
</g>
<g>
</g>
<g>
</g>
<g>
</g>
<g>
</g>
</svg>
