<?xml version="1.0" encoding="utf-8"?>
<!-- Generator: Adobe Illustrator 16.0.0, SVG Export Plug-In . SVG Version: 6.00 Build 0)  -->
<!DOCTYPE svg PUBLIC "-//W3C//DTD SVG 1.1//EN" "http://www.w3.org/Graphics/SVG/1.1/DTD/svg11.dtd">
<svg version="1.1" id="Capa_1" xmlns="http://www.w3.org/2000/svg" xmlns:xlink="http://www.w3.org/1999/xlink" x="0px" y="0px"
	 width="50.049px" height="60.096px" viewBox="0 0 20.049 30.096" enable-background="new 0 0 20.049 30.096" xml:space="preserve">
<g opacity="0.4">
	<g>
		<defs>
			<rect id="SVGID_1_" x="2.108" y="27.936" width="15.356" height="2.16"/>
		</defs>
		<clipPath id="SVGID_2_">
			<use xlink:href="#SVGID_1_"  overflow="visible"/>
		</clipPath>
		<path clip-path="url(#SVGID_2_)" fill="#282829" d="M17.464,29.017c0,0.596-3.438,1.079-7.678,1.079
			c-4.24,0-7.678-0.483-7.678-1.079c0-0.597,3.438-1.081,7.678-1.081C14.026,27.936,17.464,28.42,17.464,29.017"/>
	</g>
</g>
<g>
	<defs>
		<path id="SVGID_3_" d="M0,11.309c0,6.896,9.011,17.337,9.011,17.337c0.426,0.494,1.124,0.494,1.55,0c0,0,9.011-10.44,9.011-17.337
			c0-5.515-4.271-9.985-9.786-9.985S0,5.793,0,11.309"/>
	</defs>
	<clipPath id="SVGID_4_">
		<use xlink:href="#SVGID_3_"  overflow="visible"/>
	</clipPath>
	
		<linearGradient id="SVGID_5_" gradientUnits="userSpaceOnUse" x1="-211.3945" y1="432.1445" x2="-211.2817" y2="432.1445" gradientTransform="matrix(0 -245.587 -245.587 0 106138.9141 -51886.7227)">
		<stop  offset="0" style="stop-color:#231F20"/>
		<stop  offset="0.167" style="stop-color:#282425"/>
		<stop  offset="0.4393" style="stop-color:#343233"/>
		<stop  offset="0.7811" style="stop-color:#49484A"/>
		<stop  offset="1" style="stop-color:#595A5C"/>
	</linearGradient>
	<rect y="1.324" clip-path="url(#SVGID_4_)" fill="url(#SVGID_5_)" width="19.572" height="27.816"/>
</g>
<g>
	<defs>
		<path id="SVGID_6_" d="M0.612,11.446c0,6.464,8.412,16.211,8.412,16.211c0.419,0.485,1.104,0.485,1.523,0
			c0,0,8.412-9.747,8.412-16.211c0-5.169-4.003-9.36-9.173-9.36C4.616,2.085,0.612,6.276,0.612,11.446"/>
	</defs>
	<clipPath id="SVGID_7_">
		<use xlink:href="#SVGID_6_"  overflow="visible"/>
	</clipPath>
	
		<linearGradient id="SVGID_8_" gradientUnits="userSpaceOnUse" x1="-211.4463" y1="432.165" x2="-211.3336" y2="432.165" gradientTransform="matrix(0 -230.0055 -230.0055 0 99410.2266 -48605.8555)">
		<stop  offset="0" style="stop-color:#1E1E1C"/>
		<stop  offset="0.15" style="stop-color:#1E1E1C"/>
		<stop  offset="1" style="stop-color:#414142"/>
	</linearGradient>
	<rect x="0.612" y="2.085" clip-path="url(#SVGID_7_)" fill="url(#SVGID_8_)" width="18.347" height="26.057"/>
</g>
<g opacity="0.4">
	<g>
		<defs>
			<rect id="SVGID_9_" x="4.521" y="2.085" width="14.438" height="19.104"/>
		</defs>
		<clipPath id="SVGID_10_">
			<use xlink:href="#SVGID_9_"  overflow="visible"/>
		</clipPath>
		<g clip-path="url(#SVGID_10_)">
			<defs>
				<path id="SVGID_11_" d="M4.521,3.75l10.73,17.44c1.924-3.096,3.707-6.768,3.707-9.744c0-5.169-4.003-9.36-9.173-9.36
					C7.335,2.085,6.403,2.488,4.521,3.75"/>
			</defs>
			<clipPath id="SVGID_12_">
				<use xlink:href="#SVGID_11_"  overflow="visible"/>
			</clipPath>
			<defs>
				<filter id="Adobe_OpacityMaskFilter" filterUnits="userSpaceOnUse" x="4.521" y="2.085" width="14.438" height="19.104">
					<feColorMatrix  type="matrix" values="1 0 0 0 0  0 1 0 0 0  0 0 1 0 0  0 0 0 1 0"/>
				</filter>
			</defs>
			<mask maskUnits="userSpaceOnUse" x="4.521" y="2.085" width="14.438" height="19.104" id="SVGID_13_">
				<g filter="url(#Adobe_OpacityMaskFilter)">
					
						<linearGradient id="SVGID_14_" gradientUnits="userSpaceOnUse" x1="-211.8774" y1="432.3711" x2="-211.7646" y2="432.3711" gradientTransform="matrix(0 -169.4224 -169.4224 0 73265.0078 -35875.6289)">
						<stop  offset="0" style="stop-color:#000000"/>
						<stop  offset="0.15" style="stop-color:#000000"/>
						<stop  offset="1" style="stop-color:#FFFFFF"/>
					</linearGradient>
					<rect x="4.521" y="2.085" clip-path="url(#SVGID_12_)" fill="url(#SVGID_14_)" width="14.438" height="19.104"/>
				</g>
			</mask>
			
				<linearGradient id="SVGID_15_" gradientUnits="userSpaceOnUse" x1="-211.8779" y1="432.3711" x2="-211.7651" y2="432.3711" gradientTransform="matrix(0 -169.4223 -169.4223 0 73265.0078 -35875.6328)">
				<stop  offset="0" style="stop-color:#1E1E1C"/>
				<stop  offset="0.15" style="stop-color:#1E1E1C"/>
				<stop  offset="1" style="stop-color:#FFFFFF"/>
			</linearGradient>
			
				<rect x="4.521" y="2.085" clip-path="url(#SVGID_12_)" mask="url(#SVGID_13_)" fill="url(#SVGID_15_)" width="14.438" height="19.104"/>
		</g>
	</g>
</g>
<path fill="#F29107" d="M8.457,10.742H5.894c-0.675,0-1.229-0.554-1.229-1.229s0.554-1.23,1.229-1.23h7.792
	c0.676,0,1.23,0.555,1.23,1.23s-0.554,1.229-1.23,1.229h-2.563v8.434c0,0.745-0.589,1.334-1.334,1.334
	c-0.744,0-1.333-0.589-1.333-1.334V10.742z"/>
<path id="XMLID_2_" display="none" fill="#706F6F" d="M17.514,0c0,0,0.289,1.034,0.289,1.873c0,0.803-0.526,1.454-1.33,1.454
	c-0.807,0-1.416-0.651-1.416-1.454l0.012-0.14c-0.788,0.936-1.26,2.149-1.26,3.467c0,1.724,1.396,3.12,3.12,3.12
	c1.724,0,3.12-1.396,3.12-3.12C20.049,3.097,19.04,1.221,17.514,0z"/>
<linearGradient id="XMLID_4_" gradientUnits="userSpaceOnUse" x1="16.7329" y1="0.7139" x2="16.7329" y2="8.2832">
	<stop  offset="0" style="stop-color:#F39200"/>
	<stop  offset="1" style="stop-color:#BE1622"/>
</linearGradient>
<path id="XMLID_1_" display="none" fill="url(#XMLID_4_)" d="M17.266,0.714c0,0,0.263,0.94,0.263,1.704
	c0,0.73-0.479,1.323-1.21,1.323c-0.734,0-1.288-0.593-1.288-1.323l0.011-0.127c-0.717,0.852-1.146,1.955-1.146,3.154
	c0,1.568,1.27,2.839,2.838,2.839c1.569,0,2.839-1.271,2.839-2.839C19.572,3.532,18.653,1.825,17.266,0.714z"/>
<g>
</g>
<g>
</g>
<g>
</g>
<g>
</g>
<g>
</g>
<g>
</g>
</svg>
